<svg width="223" height="31" viewBox="0 0 223 31" fill="none" xmlns="http://www.w3.org/2000/svg">
<path d="M70.232 16.288C71.048 16.64 71.696 17.176 72.176 17.896C72.672 18.6 72.92 19.408 72.92 20.32C72.92 21.616 72.464 22.72 71.552 23.632C70.64 24.544 69.536 25 68.24 25H60.92V8.2H67.688C68.936 8.2 70 8.648 70.88 9.544C71.76 10.424 72.2 11.48 72.2 12.712C72.2 14.28 71.544 15.472 70.232 16.288ZM67.688 9.784H62.6V15.64H67.688C68.472 15.64 69.136 15.36 69.68 14.8C70.24 14.224 70.52 13.528 70.52 12.712C70.52 11.912 70.24 11.224 69.68 10.648C69.136 10.072 68.472 9.784 67.688 9.784ZM68.24 23.416C69.072 23.416 69.776 23.12 70.352 22.528C70.944 21.92 71.24 21.184 71.24 20.32C71.24 19.472 70.944 18.744 70.352 18.136C69.776 17.528 69.072 17.224 68.24 17.224H62.6V23.416H68.24ZM85.4028 25H83.1948L75.3228 16.864V25H73.6428V8.2H75.3228V15.88L82.9548 8.2H85.1628L77.0988 16.36L85.4028 25ZM94.7279 8.2H96.4559L90.8639 21.328C90.3039 22.672 89.5919 23.64 88.7279 24.232C87.8639 24.824 86.7919 25.08 85.5119 25V23.464C86.4079 23.56 87.1439 23.432 87.7199 23.08C88.3119 22.712 88.7999 22.08 89.1839 21.184L89.5199 20.392L83.7359 8.2H85.4639L90.3119 18.52L94.7279 8.2ZM103.351 25.288C100.807 25.288 98.7025 24.448 97.0385 22.768C95.3745 21.088 94.5425 19.032 94.5425 16.6C94.5425 14.168 95.3745 12.112 97.0385 10.432C98.7025 8.752 100.807 7.912 103.351 7.912C104.903 7.912 106.327 8.288 107.623 9.04C108.919 9.776 109.919 10.776 110.623 12.04L109.135 12.904C108.607 11.88 107.823 11.064 106.783 10.456C105.743 9.848 104.599 9.544 103.351 9.544C101.255 9.544 99.5425 10.224 98.2145 11.584C96.8865 12.944 96.2225 14.616 96.2225 16.6C96.2225 18.584 96.8865 20.256 98.2145 21.616C99.5425 22.976 101.255 23.656 103.351 23.656C104.599 23.656 105.743 23.352 106.783 22.744C107.823 22.136 108.607 21.32 109.135 20.296L110.623 21.136C109.935 22.4 108.935 23.408 107.623 24.16C106.327 24.912 104.903 25.288 103.351 25.288ZM122.025 8.2H123.705V25H122.025V17.152H112.905V25H111.225V8.2H112.905V15.568H122.025V8.2ZM125.378 25V8.2H127.058V14.44H131.378C132.882 14.44 134.138 14.944 135.146 15.952C136.154 16.96 136.658 18.216 136.658 19.72C136.658 21.224 136.154 22.48 135.146 23.488C134.138 24.496 132.882 25 131.378 25H125.378ZM138.458 25V8.2H140.138V25H138.458ZM127.058 23.416H131.378C132.418 23.416 133.274 23.072 133.946 22.384C134.634 21.68 134.978 20.792 134.978 19.72C134.978 18.648 134.634 17.768 133.946 17.08C133.274 16.376 132.418 16.024 131.378 16.024H127.058V23.416ZM143.507 23.416H151.667V25H141.827V8.2H151.547V9.784H143.507V15.736H150.947V17.32H143.507V23.416Z" fill="white"/>
<path d="M167.922 25.288C165.378 25.288 163.274 24.448 161.61 22.768C159.946 21.088 159.114 19.032 159.114 16.6C159.114 14.168 159.946 12.112 161.61 10.432C163.274 8.752 165.378 7.912 167.922 7.912C169.474 7.912 170.898 8.288 172.194 9.04C173.49 9.776 174.49 10.776 175.194 12.04L173.706 12.904C173.178 11.88 172.394 11.064 171.354 10.456C170.314 9.848 169.17 9.544 167.922 9.544C165.826 9.544 164.114 10.224 162.786 11.584C161.458 12.944 160.794 14.616 160.794 16.6C160.794 18.584 161.458 20.256 162.786 21.616C164.114 22.976 165.826 23.656 167.922 23.656C169.17 23.656 170.314 23.352 171.354 22.744C172.394 22.136 173.178 21.32 173.706 20.296L175.194 21.136C174.506 22.4 173.506 23.408 172.194 24.16C170.898 24.912 169.474 25.288 167.922 25.288ZM185.12 8.2H186.848L181.256 21.328C180.696 22.672 179.984 23.64 179.12 24.232C178.256 24.824 177.184 25.08 175.904 25V23.464C176.8 23.56 177.536 23.432 178.112 23.08C178.704 22.712 179.192 22.08 179.576 21.184L179.912 20.392L174.128 8.2H175.856L180.704 18.52L185.12 8.2ZM204.135 8.2H205.815V25H186.855V8.2H188.535V23.416H195.495V8.2H197.175V23.416H204.135V8.2ZM218.3 25V11.32L208.94 25H207.5V8.2H209.18V21.88L218.54 8.2H219.98V25H218.3Z" fill="#D6222D"/>
<path d="M12.0991 0.675049H31.6022C34.9301 0.675049 37.9484 1.99032 40.1412 4.09972C42.334 6.20912 43.7013 9.11265 43.7013 12.314V18.9152C43.7013 22.1165 42.334 25.02 40.1412 27.1294C37.9484 29.2388 34.9301 30.5541 31.6022 30.5541H12.0991C8.77122 30.5541 5.75289 29.2388 3.56008 27.1294C1.36728 25.02 0 22.1165 0 18.9152V12.314C0 9.11265 1.36728 6.20912 3.56008 4.09972C5.75289 1.9655 8.77122 0.675049 12.0991 0.675049ZM31.6022 2.4122H12.0991C9.28717 2.4122 6.7074 3.52894 4.84997 5.31573C2.99253 7.10252 1.83164 9.58416 1.83164 12.2892V18.8903C1.83164 21.5953 2.99253 24.077 4.84997 25.8638C6.7074 27.6506 9.28717 28.7673 12.0991 28.7673H31.6022C34.4141 28.7673 36.9939 27.6506 38.8513 25.8638C40.7088 24.077 41.8697 21.5953 41.8697 18.8903V12.2892C41.8697 9.58416 40.7088 7.10252 38.8513 5.31573C36.9939 3.52894 34.4399 2.4122 31.6022 2.4122Z" fill="white"/>
<path fill-rule="evenodd" clip-rule="evenodd" d="M18.4196 3.65013C18.4196 3.65013 17.8005 3.6005 16.846 3.65013C15.7367 5.78435 13.905 8.68788 10.9383 11.9885C8.15215 15.0905 6.65588 19.3093 5.85615 22.9077C6.11413 23.3048 6.4237 23.6522 6.75907 23.9748C7.32662 24.496 8.15215 24.9179 9.18405 25.2653C10.4223 21.5428 12.9505 16.0087 18.1101 10.9214C21.3348 7.74485 23.3212 5.33765 24.5595 3.57568C22.4699 3.57568 20.3545 3.62532 18.4196 3.65013ZM14.6274 3.84867C12.6409 4.14646 10.216 4.84132 8.17795 6.35513C3.92133 9.53163 4.92743 13.5271 4.59206 15.2891C4.41148 16.2569 4.30829 18.0189 4.66946 19.8305C5.59818 16.8525 7.04285 13.7504 9.26145 11.2936C11.8154 8.4149 13.5181 5.8588 14.6274 3.84867ZM11.0415 25.7864C12.125 26.0098 13.3375 26.2083 14.6532 26.3324C15.6335 24.0989 17.5683 21.1457 21.4122 18.143C22.5731 17.2496 23.8113 16.3065 25.0496 15.3635C30.0544 11.5914 34.6722 8.1171 35.8589 5.31283C33.7177 4.19609 30.3124 3.77422 26.6491 3.62532C25.385 5.53619 23.2438 8.16673 19.7353 11.6659C14.6532 16.7036 12.2024 22.188 11.0415 25.7864ZM16.6654 26.5061C18.2906 26.6302 20.0449 26.6798 21.8249 26.7295C22.8052 25.6375 24.2757 24.2726 26.5201 22.5355C30.7251 19.2845 34.4142 17.6714 37.0972 16.4802C37.9227 16.108 38.645 15.8102 39.2642 15.4876C39.3932 12.4848 39.0836 9.25866 37.6905 6.92591C37.6131 6.77701 37.4841 6.62811 37.3809 6.47921C35.6267 9.40756 31.2411 12.7081 26.5459 16.2569C25.385 17.1503 24.1725 18.0437 22.9342 19.0115C19.3999 21.7662 17.5941 24.4463 16.6654 26.5061ZM23.9661 26.7543H25.3334C33.4081 26.7543 37.9227 23.8756 38.6708 20.1531C38.8514 19.2597 39.0062 18.267 39.1094 17.1751C38.7998 17.2992 38.4902 17.4481 38.1807 17.597C35.5751 18.7385 32.0408 20.302 28.0164 23.404C26.1847 24.8186 24.8949 25.9105 23.9661 26.7543Z" fill="#FF0000"/>
</svg>
